<mxfile host="app.diagrams.net" agent="Mozilla/5.0 (X11; Linux x86_64) AppleWebKit/537.36 (KHTML, like Gecko) Chrome/130.0.0.0 Safari/537.36" version="26.0.7">
  <diagram name="Page-1" id="-zpobNCRoJzgbsx7DYgf">
    <mxGraphModel dx="1259" dy="699" grid="1" gridSize="10" guides="1" tooltips="1" connect="1" arrows="1" fold="1" page="1" pageScale="1" pageWidth="850" pageHeight="1100" math="0" shadow="0">
      <root>
        <mxCell id="0" />
        <mxCell id="1" parent="0" />
        <mxCell id="v-uJYoF45G3hf1e3tdbR-30" value="" style="triangle;whiteSpace=wrap;html=1;rotation=-90;" vertex="1" parent="1">
          <mxGeometry x="185" y="-40.62" width="266.25" height="450.62" as="geometry" />
        </mxCell>
        <mxCell id="v-uJYoF45G3hf1e3tdbR-1" value="&lt;p style=&quot;margin:0px;margin-top:4px;text-align:center;&quot;&gt;&lt;b&gt;MultiTableEmbeddings&lt;/b&gt;&lt;/p&gt;&lt;hr size=&quot;1&quot; style=&quot;border-style:solid;&quot;&gt;&lt;p style=&quot;margin:0px;margin-left:4px;&quot;&gt;+ field: Type&lt;/p&gt;&lt;hr size=&quot;1&quot; style=&quot;border-style:solid;&quot;&gt;&lt;p style=&quot;margin:0px;margin-left:4px;&quot;&gt;+ method(): Type&lt;/p&gt;" style="verticalAlign=top;align=left;overflow=fill;html=1;whiteSpace=wrap;" vertex="1" parent="1">
          <mxGeometry x="50" y="840" width="160" height="90" as="geometry" />
        </mxCell>
        <mxCell id="v-uJYoF45G3hf1e3tdbR-5" style="edgeStyle=orthogonalEdgeStyle;rounded=0;orthogonalLoop=1;jettySize=auto;html=1;exitX=0.5;exitY=1;exitDx=0;exitDy=0;entryX=0.5;entryY=0;entryDx=0;entryDy=0;shape=flexArrow;" edge="1" parent="1" source="v-uJYoF45G3hf1e3tdbR-2" target="v-uJYoF45G3hf1e3tdbR-4">
          <mxGeometry relative="1" as="geometry" />
        </mxCell>
        <mxCell id="v-uJYoF45G3hf1e3tdbR-2" value="&lt;p style=&quot;margin:0px;margin-top:4px;text-align:center;&quot;&gt;&lt;span style=&quot;background-color: transparent; text-align: left;&quot;&gt;&lt;b&gt;DlrmBottom&lt;/b&gt;&lt;/span&gt;&lt;/p&gt;&lt;hr size=&quot;1&quot; style=&quot;border-style:solid;&quot;&gt;&lt;p style=&quot;margin:0px;margin-left:4px;&quot;&gt;+ field: Type&lt;/p&gt;&lt;hr size=&quot;1&quot; style=&quot;border-style:solid;&quot;&gt;&lt;p style=&quot;margin:0px;margin-left:4px;&quot;&gt;+ method(): Type&lt;/p&gt;" style="verticalAlign=top;align=left;overflow=fill;html=1;whiteSpace=wrap;" vertex="1" parent="1">
          <mxGeometry x="282.5" y="840" width="160" height="90" as="geometry" />
        </mxCell>
        <mxCell id="v-uJYoF45G3hf1e3tdbR-3" value="&lt;p style=&quot;margin:0px;margin-top:4px;text-align:center;&quot;&gt;&lt;b&gt;DlrmTop&lt;/b&gt;&lt;/p&gt;&lt;hr size=&quot;1&quot; style=&quot;border-style:solid;&quot;&gt;&lt;p style=&quot;margin:0px;margin-left:4px;&quot;&gt;+ field: Type&lt;/p&gt;&lt;hr size=&quot;1&quot; style=&quot;border-style:solid;&quot;&gt;&lt;p style=&quot;margin:0px;margin-left:4px;&quot;&gt;+ method(): Type&lt;/p&gt;" style="verticalAlign=top;align=left;overflow=fill;html=1;whiteSpace=wrap;" vertex="1" parent="1">
          <mxGeometry x="532.5" y="840" width="160" height="90" as="geometry" />
        </mxCell>
        <mxCell id="v-uJYoF45G3hf1e3tdbR-4" value="[batch_size, 1 + #embeddings, embedding_dim]" style="rounded=0;whiteSpace=wrap;html=1;" vertex="1" parent="1">
          <mxGeometry x="217.5" y="990" width="290" height="40" as="geometry" />
        </mxCell>
        <mxCell id="v-uJYoF45G3hf1e3tdbR-6" value="" style="shape=trapezoid;perimeter=trapezoidPerimeter;whiteSpace=wrap;html=1;fixedSize=1;" vertex="1" parent="1">
          <mxGeometry x="100" y="440" width="510" height="200" as="geometry" />
        </mxCell>
        <mxCell id="v-uJYoF45G3hf1e3tdbR-25" style="edgeStyle=orthogonalEdgeStyle;rounded=0;orthogonalLoop=1;jettySize=auto;html=1;exitX=0.75;exitY=0;exitDx=0;exitDy=0;entryX=0.75;entryY=1;entryDx=0;entryDy=0;" edge="1" parent="1" source="v-uJYoF45G3hf1e3tdbR-7" target="v-uJYoF45G3hf1e3tdbR-11">
          <mxGeometry relative="1" as="geometry">
            <Array as="points">
              <mxPoint x="485" y="460" />
              <mxPoint x="533" y="460" />
            </Array>
          </mxGeometry>
        </mxCell>
        <mxCell id="v-uJYoF45G3hf1e3tdbR-7" value="" style="rounded=0;whiteSpace=wrap;html=1;" vertex="1" parent="1">
          <mxGeometry x="320" y="480" width="220" height="140" as="geometry" />
        </mxCell>
        <mxCell id="v-uJYoF45G3hf1e3tdbR-8" value="&lt;b style=&quot;forced-color-adjust: none; color: rgb(0, 0, 0); font-family: Helvetica; font-size: 12px; font-style: normal; font-variant-ligatures: normal; font-variant-caps: normal; letter-spacing: normal; orphans: 2; text-align: center; text-indent: 0px; text-transform: none; widows: 2; word-spacing: 0px; -webkit-text-stroke-width: 0px; white-space: normal; background-color: rgb(251, 251, 251); text-decoration-thickness: initial; text-decoration-style: initial; text-decoration-color: initial;&quot;&gt;MultiTableEmbeddings&lt;/b&gt;" style="text;html=1;align=center;verticalAlign=middle;whiteSpace=wrap;rounded=0;" vertex="1" parent="1">
          <mxGeometry x="330" y="490" width="140" height="20" as="geometry" />
        </mxCell>
        <mxCell id="v-uJYoF45G3hf1e3tdbR-9" value="Embedding&lt;div&gt;1&lt;/div&gt;" style="rounded=0;whiteSpace=wrap;html=1;" vertex="1" parent="1">
          <mxGeometry x="330" y="540" width="80" height="50" as="geometry" />
        </mxCell>
        <mxCell id="v-uJYoF45G3hf1e3tdbR-10" value="Embedding&lt;div&gt;M&lt;/div&gt;" style="rounded=0;whiteSpace=wrap;html=1;" vertex="1" parent="1">
          <mxGeometry x="445" y="540" width="80" height="50" as="geometry" />
        </mxCell>
        <mxCell id="v-uJYoF45G3hf1e3tdbR-28" style="edgeStyle=orthogonalEdgeStyle;rounded=0;orthogonalLoop=1;jettySize=auto;html=1;exitX=0.25;exitY=0;exitDx=0;exitDy=0;entryX=0.75;entryY=1;entryDx=0;entryDy=0;" edge="1" parent="1" source="v-uJYoF45G3hf1e3tdbR-11" target="v-uJYoF45G3hf1e3tdbR-26">
          <mxGeometry relative="1" as="geometry">
            <Array as="points">
              <mxPoint x="398" y="330" />
              <mxPoint x="346" y="330" />
            </Array>
          </mxGeometry>
        </mxCell>
        <mxCell id="v-uJYoF45G3hf1e3tdbR-11" value="&lt;div&gt;bottom_output&lt;/div&gt;[batch_size, 1 + #embeddings, embedding_dim]" style="rounded=0;whiteSpace=wrap;html=1;" vertex="1" parent="1">
          <mxGeometry x="330" y="350" width="270" height="60" as="geometry" />
        </mxCell>
        <mxCell id="v-uJYoF45G3hf1e3tdbR-15" style="edgeStyle=orthogonalEdgeStyle;rounded=0;orthogonalLoop=1;jettySize=auto;html=1;exitX=0.5;exitY=0;exitDx=0;exitDy=0;entryX=0.5;entryY=1;entryDx=0;entryDy=0;" edge="1" parent="1" source="v-uJYoF45G3hf1e3tdbR-12" target="v-uJYoF45G3hf1e3tdbR-17">
          <mxGeometry relative="1" as="geometry" />
        </mxCell>
        <mxCell id="v-uJYoF45G3hf1e3tdbR-12" value="Numerical feature" style="text;html=1;align=center;verticalAlign=middle;whiteSpace=wrap;rounded=0;" vertex="1" parent="1">
          <mxGeometry x="185" y="670" width="65" height="30" as="geometry" />
        </mxCell>
        <mxCell id="v-uJYoF45G3hf1e3tdbR-13" value="" style="rounded=0;whiteSpace=wrap;html=1;" vertex="1" parent="1">
          <mxGeometry x="560" y="970" width="210" height="100" as="geometry" />
        </mxCell>
        <mxCell id="v-uJYoF45G3hf1e3tdbR-14" value="&lt;b&gt;DotInteraction&lt;/b&gt;" style="text;html=1;align=center;verticalAlign=middle;whiteSpace=wrap;rounded=0;" vertex="1" parent="1">
          <mxGeometry x="570" y="980" width="92.5" height="20" as="geometry" />
        </mxCell>
        <mxCell id="v-uJYoF45G3hf1e3tdbR-16" value="&lt;b&gt;DlrmBottom&lt;/b&gt;" style="text;html=1;align=center;verticalAlign=middle;whiteSpace=wrap;rounded=0;" vertex="1" parent="1">
          <mxGeometry x="120" y="450" width="87.5" height="20" as="geometry" />
        </mxCell>
        <mxCell id="v-uJYoF45G3hf1e3tdbR-23" style="edgeStyle=orthogonalEdgeStyle;rounded=0;orthogonalLoop=1;jettySize=auto;html=1;exitX=0.5;exitY=0;exitDx=0;exitDy=0;entryX=0.5;entryY=1;entryDx=0;entryDy=0;" edge="1" parent="1" source="v-uJYoF45G3hf1e3tdbR-17" target="v-uJYoF45G3hf1e3tdbR-22">
          <mxGeometry relative="1" as="geometry" />
        </mxCell>
        <mxCell id="v-uJYoF45G3hf1e3tdbR-24" style="edgeStyle=orthogonalEdgeStyle;rounded=0;orthogonalLoop=1;jettySize=auto;html=1;exitX=0.5;exitY=0;exitDx=0;exitDy=0;entryX=0.25;entryY=1;entryDx=0;entryDy=0;" edge="1" parent="1" source="v-uJYoF45G3hf1e3tdbR-17" target="v-uJYoF45G3hf1e3tdbR-11">
          <mxGeometry relative="1" as="geometry">
            <Array as="points">
              <mxPoint x="218" y="460" />
              <mxPoint x="398" y="460" />
            </Array>
          </mxGeometry>
        </mxCell>
        <mxCell id="v-uJYoF45G3hf1e3tdbR-17" value="&lt;div&gt;mlp&lt;/div&gt;" style="rounded=0;whiteSpace=wrap;html=1;" vertex="1" parent="1">
          <mxGeometry x="177.5" y="560" width="80" height="50" as="geometry" />
        </mxCell>
        <mxCell id="v-uJYoF45G3hf1e3tdbR-19" style="edgeStyle=orthogonalEdgeStyle;rounded=0;orthogonalLoop=1;jettySize=auto;html=1;exitX=0.5;exitY=0;exitDx=0;exitDy=0;entryX=0.5;entryY=1;entryDx=0;entryDy=0;" edge="1" parent="1" source="v-uJYoF45G3hf1e3tdbR-18" target="v-uJYoF45G3hf1e3tdbR-9">
          <mxGeometry relative="1" as="geometry" />
        </mxCell>
        <mxCell id="v-uJYoF45G3hf1e3tdbR-18" value="Categorical feature&lt;div&gt;1&lt;/div&gt;" style="text;html=1;align=center;verticalAlign=middle;whiteSpace=wrap;rounded=0;" vertex="1" parent="1">
          <mxGeometry x="337.5" y="665" width="65" height="40" as="geometry" />
        </mxCell>
        <mxCell id="v-uJYoF45G3hf1e3tdbR-21" style="edgeStyle=orthogonalEdgeStyle;rounded=0;orthogonalLoop=1;jettySize=auto;html=1;exitX=0.5;exitY=0;exitDx=0;exitDy=0;entryX=0.5;entryY=1;entryDx=0;entryDy=0;" edge="1" parent="1" source="v-uJYoF45G3hf1e3tdbR-20" target="v-uJYoF45G3hf1e3tdbR-10">
          <mxGeometry relative="1" as="geometry" />
        </mxCell>
        <mxCell id="v-uJYoF45G3hf1e3tdbR-20" value="Categorical feature&lt;div&gt;M&lt;/div&gt;" style="text;html=1;align=center;verticalAlign=middle;whiteSpace=wrap;rounded=0;" vertex="1" parent="1">
          <mxGeometry x="452.5" y="665" width="65" height="40" as="geometry" />
        </mxCell>
        <mxCell id="v-uJYoF45G3hf1e3tdbR-29" style="edgeStyle=orthogonalEdgeStyle;rounded=0;orthogonalLoop=1;jettySize=auto;html=1;exitX=0.75;exitY=0;exitDx=0;exitDy=0;entryX=0.25;entryY=1;entryDx=0;entryDy=0;" edge="1" parent="1" source="v-uJYoF45G3hf1e3tdbR-22" target="v-uJYoF45G3hf1e3tdbR-26">
          <mxGeometry relative="1" as="geometry">
            <Array as="points">
              <mxPoint x="263" y="330" />
              <mxPoint x="287" y="330" />
            </Array>
          </mxGeometry>
        </mxCell>
        <mxCell id="v-uJYoF45G3hf1e3tdbR-22" value="&lt;div&gt;bottom_mlp_output&lt;/div&gt;[batch_size, embedding_dim]" style="rounded=0;whiteSpace=wrap;html=1;" vertex="1" parent="1">
          <mxGeometry x="127.5" y="350" width="180" height="60" as="geometry" />
        </mxCell>
        <mxCell id="v-uJYoF45G3hf1e3tdbR-35" style="edgeStyle=orthogonalEdgeStyle;rounded=0;orthogonalLoop=1;jettySize=auto;html=1;exitX=0.5;exitY=0;exitDx=0;exitDy=0;entryX=0.5;entryY=1;entryDx=0;entryDy=0;" edge="1" parent="1" source="v-uJYoF45G3hf1e3tdbR-26" target="v-uJYoF45G3hf1e3tdbR-33">
          <mxGeometry relative="1" as="geometry" />
        </mxCell>
        <mxCell id="v-uJYoF45G3hf1e3tdbR-26" value="&lt;b&gt;DotInteraction&lt;/b&gt;" style="rounded=0;whiteSpace=wrap;html=1;" vertex="1" parent="1">
          <mxGeometry x="257.5" y="250" width="117.5" height="50" as="geometry" />
        </mxCell>
        <mxCell id="v-uJYoF45G3hf1e3tdbR-37" style="edgeStyle=orthogonalEdgeStyle;rounded=0;orthogonalLoop=1;jettySize=auto;html=1;exitX=0.5;exitY=0;exitDx=0;exitDy=0;entryX=0;entryY=0.5;entryDx=0;entryDy=0;" edge="1" parent="1" source="v-uJYoF45G3hf1e3tdbR-33" target="v-uJYoF45G3hf1e3tdbR-34">
          <mxGeometry relative="1" as="geometry" />
        </mxCell>
        <mxCell id="v-uJYoF45G3hf1e3tdbR-33" value="&lt;div&gt;interaction_output&lt;/div&gt;[num_interactions, embedding_dim]" style="rounded=0;whiteSpace=wrap;html=1;" vertex="1" parent="1">
          <mxGeometry x="213.75" y="175" width="205" height="60" as="geometry" />
        </mxCell>
        <mxCell id="v-uJYoF45G3hf1e3tdbR-34" value="&lt;div&gt;Click&lt;/div&gt;&lt;div&gt;probability&lt;/div&gt;" style="rounded=0;whiteSpace=wrap;html=1;" vertex="1" parent="1">
          <mxGeometry x="437.5" y="80" width="80" height="50" as="geometry" />
        </mxCell>
        <mxCell id="v-uJYoF45G3hf1e3tdbR-36" value="&lt;b&gt;DlrmTop&lt;/b&gt;" style="text;html=1;align=center;verticalAlign=middle;whiteSpace=wrap;rounded=0;" vertex="1" parent="1">
          <mxGeometry x="120" y="290" width="87.5" height="20" as="geometry" />
        </mxCell>
        <mxCell id="v-uJYoF45G3hf1e3tdbR-38" value="..." style="text;html=1;align=center;verticalAlign=middle;whiteSpace=wrap;rounded=0;" vertex="1" parent="1">
          <mxGeometry x="412.5" y="660" width="30" height="30" as="geometry" />
        </mxCell>
      </root>
    </mxGraphModel>
  </diagram>
</mxfile>
